<svg id="Component_7_1" data-name="Component 7 – 1" xmlns="http://www.w3.org/2000/svg" width="38.477" height="34.205" viewBox="0 0 38.477 34.205">
  <path id="Path_345" data-name="Path 345" d="M7.277,65.5a4.119,4.119,0,0,1-3.021-1.257A4.112,4.112,0,0,1,3,61.222V35.569a4.117,4.117,0,0,1,1.255-3.021,4.117,4.117,0,0,1,3.021-1.255H37.2a4.284,4.284,0,0,1,4.276,4.276V61.222A4.288,4.288,0,0,1,37.2,65.5ZM22.239,51.6,7.277,40.913V61.222H37.2V40.913Zm0-5.344L37.2,35.569H7.277ZM7.277,39.844v0Z" transform="translate(-3.001 -31.293)" fill="#414141"/>
</svg>
