<svg id="Component_6_1" data-name="Component 6 – 1" xmlns="http://www.w3.org/2000/svg" width="34.205" height="34.205" viewBox="0 0 34.205 34.205">
  <path id="Path_348" data-name="Path 348" d="M56.59,31.293H30.876a4.245,4.245,0,0,0-4.246,4.244V61.252A4.245,4.245,0,0,0,30.876,65.5H56.59a4.245,4.245,0,0,0,4.246-4.246V35.537A4.245,4.245,0,0,0,56.59,31.293Zm-19.8,29.145H31.7V44.116h5.082ZM34.241,41.873a2.941,2.941,0,1,1,0-5.881h0a2.941,2.941,0,0,1,0,5.881ZM55.788,60.44H50.717V52.5c0-1.892-.034-4.329-2.636-4.329-2.64,0-3.046,2.063-3.046,4.19v8.077H39.966V44.116h-.006l.006,0v0h4.859v2.23h.066a5.338,5.338,0,0,1,4.81-2.636c5.137,0,6.086,3.382,6.086,7.775Z" transform="translate(-26.63 -31.293)" fill="#414141"/>
</svg>
